#!OML:ASF I:\Random Stuff\random\construction\7_22_03\Session 2\subj1.ASF
:FULLY-SPECIFIED
:DEGREES
859
root 6.70792 17.5425 3.32978 74.7027 88.0695 68.0795
lowerback 4.64488 0.0272784 0.780847
upperback -1.31217 0.122143 0.874524
thorax -3.95911 0.0545383 0.453976
lowerneck -18.881 1.47476 0.252989
upperneck 19.9864 2.83423 -3.11693
head 9.4858 1.02528 -0.729413
rclavicle -8.44835e-016 -3.18055e-015
rhumerus -34.916 3.50281 -76.647
rradius 39.7637
rwrist -12.4506
rhand -21.0698 17.5528
rfingers 7.12502
rthumb 5.30699 -12.3607
lclavicle -8.44835e-016 -3.18055e-015
lhumerus -42.9101 0.893471 83.8531
lradius 47.5483
lwrist 55.5359
lhand -21.9565 65.6886
lfingers 7.12502
lthumb 4.4508 -95.6219
rfemur -14.7393 2.54073 20.5575
rtibia 27.4247
rfoot -18.6832 -3.82447
rtoes -21.4951
lfemur -11.433 -8.02024 -16.0255
ltibia 28.09
lfoot -17.3706 -5.95519
ltoes -26.4538
860
root 6.70494 17.5391 3.25434 77.4838 88.648 70.6937
lowerback 4.5902 -0.068975 0.824066
upperback -1.323 0.00278287 1.02679
thorax -3.9393 -0.00332278 0.596248
lowerneck -19.456 1.33259 -0.710455
upperneck 20.4784 2.65669 -1.91915
head 9.72811 0.994172 -0.174674
rclavicle -7.95139e-016 2.06736e-014
rhumerus -35.0656 3.39013 -76.6192
rradius 39.1938
rwrist -12.3925
rhand -20.8397 17.3484
rfingers 7.12502
rthumb 5.52908 -12.5594
lclavicle -7.95139e-016 2.06736e-014
lhumerus -42.7359 0.475371 84.4035
lradius 47.9526
lwrist 55.6431
lhand -21.686 65.9623
lfingers 7.12502
lthumb 4.71198 -95.8899
rfemur -15.1467 2.21895 20.8875
rtibia 27.8167
rfoot -18.642 -3.69614
rtoes -20.5479
lfemur -11.1327 -8.9182 -15.6795
ltibia 27.2166
lfoot -17.9957 -4.95181
ltoes -27.6392
861
root 6.69045 17.5247 3.17934 83.0139 89.2539 76.0256
lowerback 4.60602 -0.148772 0.859765
upperback -1.30136 -0.0947625 1.17225
thorax -3.92536 -0.0502549 0.73398
lowerneck -19.9038 1.26003 -1.14707
upperneck 20.6585 2.53129 -1.24654
head 9.8565 0.973266 0.118361
rclavicle -2.28602e-015 5.1684e-015
rhumerus -35.1138 3.12328 -76.5903
rradius 38.6118
rwrist -12.2395
rhand -20.5193 16.8516
rfingers 7.12502
rthumb 5.83844 -13.048
lclavicle -2.28602e-015 5.1684e-015
lhumerus -42.468 0.137187 84.8943
lradius 48.3877
lwrist 55.8753
lhand -22.0004 65.9856
lfingers 7.12502
lthumb 4.40843 -95.9197
rfemur -15.5643 2.15033 21.2392
rtibia 28.1195
rfoot -18.645 -3.75699
rtoes -20.8113
lfemur -11.0354 -9.04512 -15.3391
ltibia 26.7323
lfoot -18.6172 -4.59225
ltoes -26.6182
862
root 6.66808 17.517 3.1057 108.624 89.5634 101.408
lowerback 4.67637 -0.204973 0.652897
upperback -1.31707 -0.179852 1.20957
thorax -3.98005 -0.0871194 0.895822
lowerneck -19.7169 1.33344 -0.561202
upperneck 20.3076 2.53027 -1.63732
head 9.71111 0.976189 -0.118143
rclavicle 1.83876e-015 1.51076e-014
rhumerus -35.2042 2.6837 -76.5723
rradius 37.9204
rwrist -11.9586
rhand -20.3749 16.9743
rfingers 7.12502
rthumb 5.97784 -12.9214
lclavicle 1.83876e-015 1.51076e-014
lhumerus -42.203 -0.167135 85.2841
lradius 48.7348
lwrist 56.0998
lhand -22.3845 65.9682
lfingers 7.12502
lthumb 4.03747 -95.9097
rfemur -15.9392 2.1906 21.2958
rtibia 28.2708
rfoot -18.5522 -3.94524
rtoes -21.259
lfemur -11.1973 -8.90096 -15.3212
ltibia 26.5693
lfoot -19.2422 -4.173
ltoes -26.5133
863
root 6.64322 17.5186 3.03026 147.402 89.5789 140.046
lowerback 4.87469 -0.237195 0.367998
upperback -1.34106 -0.240622 1.16882
thorax -4.11533 -0.111049 1.02004
lowerneck -18.8376 1.5721 1.16763
upperneck 19.3694 2.69155 -3.25628
head 9.27276 1.0127 -0.948402
rclavicle 1.83876e-015 1.39149e-014
rhumerus -35.3441 2.09538 -76.5536
rradius 37.0645
rwrist -11.4179
rhand -20.5082 17.7423
rfingers 7.12502
rthumb 5.84921 -12.1569
lclavicle 1.83876e-015 1.39149e-014
lhumerus -41.8707 -0.328604 85.5519
lradius 48.7785
lwrist 56.1621
lhand -22.465 65.7728
lfingers 7.12502
lthumb 3.95977 -95.7158
rfemur -16.2265 2.25835 21.2043
rtibia 28.421
rfoot -18.3668 -4.26422
rtoes -21.6102
lfemur -11.3561 -8.84928 -15.5108
ltibia 26.4622
lfoot -19.6198 -3.5392
ltoes -25.9197
864
root 6.61733 17.5227 2.95242 168.183 89.5024 160.78
lowerback 5.14105 -0.237062 0.0582816
upperback -1.29412 -0.263205 1.09676
thorax -4.21583 -0.115775 1.12299
lowerneck -19.4738 1.42392 0.367309
upperneck 19.9177 2.48586 -2.18133
head 9.54842 0.967719 -0.46958
rclavicle 3.57812e-015 4.37326e-015
rhumerus -35.4243 1.41977 -76.5017
rradius 36.1578
rwrist -10.7673
rhand -20.548 18.4985
rfingers 7.12502
rthumb 5.81071 -11.4018
lclavicle 3.57812e-015 4.37326e-015
lhumerus -41.266 -0.32663 85.7019
lradius 48.4068
lwrist 56.1079
lhand -22.2626 65.1584
lfingers 7.12502
lthumb 4.15517 -95.0976
rfemur -16.4276 2.40605 21.0541
rtibia 28.5395
rfoot -18.1352 -4.70289
rtoes -22.4401
lfemur -11.4389 -8.95974 -15.8036
ltibia 26.3693
lfoot -19.8467 -2.8498
ltoes -23.8894
